inDegrees=yes
name=ik_S56_A09_T01
DataType=double
version=3
OpenSimVersion=4.3-2021-08-27-4bc7ad9
endheader
time	pelvis_tilt	pelvis_list	pelvis_rotation	pelvis_tx	pelvis_ty	pelvis_tz	hip_flexion_r	hip_adduction_r	hip_rotation_r	knee_angle_r	knee_angle_r_beta	ankle_angle_r	subtalar_angle_r	mtp_angle_r	hip_flexion_l	hip_adduction_l	hip_rotation_l	knee_angle_l	knee_angle_l_beta	ankle_angle_l	subtalar_angle_l	mtp_angle_l	lumbar_extension	lumbar_bending	lumbar_rotation	arm_flex_r	arm_add_r	arm_rot_r	elbow_flex_r	pro_sup_r	wrist_flex_r	wrist_dev_r	arm_flex_l	arm_add_l	arm_rot_l	elbow_flex_l	pro_sup_l	wrist_flex_l	wrist_dev_l
20.35999999999965	-6.574980734562858	-4.478993929915796	27.07343035353622	0	0.9399999999999999	0	37.45187236373849	-10.50206874822791	-9.820018766846818	50.43625311683551	0.8802786792580319	0	0	0	37.45187236373849	-10.50206874822791	-9.820018766846818	50.43625311683551	0.8802786792580319	0	0	0	-5.999184439797155	-1.823648900488043	11.63068355783472	59.01173192409487	-12.49588559853234	19.86873308771608	53.29979941640088	111.6866603083919	0	0	71.16742066243566	-8.838348739230319	7.961291897370289	61.19653703190415	87.31045916464075	0	0
20.37999999999965	-6.59548321442271	-4.445240845248099	27.40776317210178	0	0.9399999999999999	0	37.45564235166372	-10.50120038556267	-9.8202183355732	50.43776921353429	0.8803051401372042	0	0	0	37.45564235166372	-10.50120038556267	-9.8202183355732	50.43776921353429	0.8803051401372042	0	0	0	-6.022252047352732	-1.733457605329101	11.28228019721844	59.13768998163961	-12.43377529954429	19.80083858849073	53.25245346939323	111.7930337748433	0	0	72.30435165698191	-10.36586668891045	6.015619087213127	59.03188905075704	89.03855407788295	0	0
20.39999999999965	-6.646985445935108	-4.364574475359922	27.595353819609	0	0.9399999999999999	0	37.45875683818186	-10.50048418855676	-9.820383055663699	50.43902259479871	0.8803270157670512	0	0	0	37.45875683818186	-10.50048418855676	-9.820383055663699	50.43902259479871	0.8803270157670512	0	0	0	-6.042407337057715	-1.615462732261361	11.12180189225473	59.24253785101246	-12.4720354728876	19.85010245085621	53.23313397130694	111.9463551530689	0	0	72.75022498203327	-11.12959367214208	4.891602443839363	57.91691811801322	89.96378174481281	0	0
20.41999999999965	-6.665699846746246	-4.329954340616221	27.86968058225651	0	0.9399999999999999	0	37.46347467923045	-10.49939927290533	-9.820632630888827	50.44091914311343	0.8803601167795662	0	0	0	37.46347467923045	-10.49939927290533	-9.820632630888827	50.44091914311343	0.8803601167795662	0	0	0	-6.058244946135819	-1.546007363364218	10.89864935740439	59.34720362885672	-12.4996881215593	19.88141697415102	53.18979908521231	112.0273595672579	0	0	73.26555483548438	-12.05134880110088	3.829314939989076	55.72510348233814	91.9619952854222	0	0
20.43999999999965	-6.671813726250555	-4.310984402598268	28.30027428907651	0	0.9399999999999999	0	37.46825746162772	-10.49830141501778	-9.820885406607353	50.44284267108426	0.8803936886759113	0	0	0	37.46825746162772	-10.49830141501778	-9.820885406607353	50.44284267108426	0.8803936886759113	0	0	0	-6.082267337404871	-1.474708989756066	10.50574692051635	59.44206489575519	-12.49299888466786	19.93029165459246	53.29651685559229	112.2045488949421	0	0	74.26891968520337	-13.59991510481606	2.342564704710727	51.71314728614666	95.05882308783193	0	0
20.45999999999965	-6.686817178810322	-4.272270589094971	28.46622265424349	0	0.9399999999999999	0	37.47096270135498	-10.49768280267895	-9.821028052249169	50.44393364487243	0.8804127297605679	0	0	0	37.47096270135498	-10.49768280267895	-9.821028052249169	50.44393364487243	0.8804127297605679	0	0	0	-6.087013323623036	-1.41339416324415	10.36310557836238	59.43550775758361	-12.55367593226505	19.99367721321543	53.42601748659818	112.4422578548696	0	0	74.74388835422926	-14.30553826391031	1.868325737230432	50.20400161647872	95.96099281857258	0	0
20.47999999999965	-6.707331985458675	-4.245390640843854	28.75755738890569	0	0.9399999999999999	0	37.47451731684525	-10.49687120924235	-9.821215329733175	50.44536800070341	0.8804377639924637	0	0	0	37.47451731684525	-10.49687120924235	-9.821215329733175	50.44536800070341	0.8804377639924637	0	0	0	-6.109325389795321	-1.345653946952401	10.11891040452767	59.55326535634357	-12.6106878679723	20.09075974773321	53.44272407105004	112.6035505944005	0	0	75.21659431660804	-15.02511278323499	1.547489958578703	47.21799336103636	98.18016834177367	0	0
20.49999999999965	-6.722111548961883	-4.234082116800555	29.22276634458893	0	0.9399999999999999	0	37.47833262313912	-10.49600418683854	-9.82141576544792	50.44691288655631	0.8804647273371642	0	0	0	37.47833262313912	-10.49600418683854	-9.82141576544792	50.44691288655631	0.8804647273371642	0	0	0	-6.140727400962989	-1.261386134234369	9.721912816258142	59.59810130426221	-12.69134120888819	20.11976116236011	53.53272257571435	112.8110703978446	0	0	75.61521999434122	-15.71047541176967	1.496514339963054	41.6959985298301	100.7689800341396	0	0
20.51999999999965	-6.725862099786948	-4.208216162590067	29.32632120045101	0	0.9399999999999999	0	37.48043007974907	-10.49553485632548	-9.821524862551678	50.44777409072891	0.8804797581855082	0	0	0	37.48043007974907	-10.49553485632548	-9.821524862551678	50.44777409072891	0.8804797581855082	0	0	0	-6.138327873963785	-1.221952893867145	9.621011964321687	59.59962136890872	-12.71675230753436	20.19449580646	53.59542212032173	112.9551914806098	0	0	75.57795008851191	-15.78051870399831	1.416559742598048	40.38857735119865	101.3981528501036	0	0
20.53999999999965	-6.738926338879485	-4.208047917652029	29.51115911392801	0	0.9399999999999999	0	37.48327198539698	-10.49489208468467	-9.821673739696612	50.44892848208869	0.8804999061155928	0	0	0	37.48327198539698	-10.49489208468467	-9.821673739696612	50.44892848208869	0.8804999061155928	0	0	0	-6.159754042987014	-1.189555224966491	9.452889777953867	59.67621957327655	-12.74212992707954	20.21057034916322	53.64557577704325	113.0816913393982	0	0	75.84555821604835	-16.22205439670268	1.752314314784989	37.71817741602713	102.2973803569289	0	0
20.55999999999965	-6.766107315790959	-4.213864327942615	29.68561368073019	0	0.9399999999999999	0	37.48725072355887	-10.49399404016465	-9.821881928621529	50.45054636919209	0.8805281435724727	0	0	0	37.48725072355887	-10.49399404016465	-9.821881928621529	50.45054636919209	0.8805281435724727	0	0	0	-6.194971638856366	-1.163137192651786	9.328932996893494	59.72960455204759	-12.81074092539702	20.20351440935594	53.63930403123963	113.0905356328213	0	0	75.9338951391461	-16.24344821058262	1.745345650735842	35.37529663281937	103.5538599964781	0	0
20.57999999999965	-6.794729073164823	-4.218609085079667	29.82848133022532	0	0.9399999999999999	0	37.4911987621229	-10.49309671651917	-9.822089492191107	50.45213959406021	0.8805559505921461	0	0	0	37.4911987621229	-10.49309671651917	-9.822089492191107	50.45213959406021	0.8805559505921461	0	0	0	-6.229717237101976	-1.134650674349628	9.208539015445945	59.80231880752313	-12.85579080242059	20.20931979444136	53.7038701200603	113.2254549101475	0	0	76.19561376516384	-17.0108794271994	2.555163515011589	33.28939431989527	103.7245376690698	0	0
20.59999999999965	-6.815883088513178	-4.232421074382946	29.8690268802001	0	0.9399999999999999	0	37.49399356064605	-10.49247295300819	-9.8222347049396	50.45328646692507	0.8805759672997396	0	0	0	37.49399356064605	-10.49247295300819	-9.8222347049396	50.45328646692507	0.8805759672997396	0	0	0	-6.261242677346485	-1.122586435733989	9.121758393948987	59.84356232248478	-12.84906290621911	20.21756086613488	53.72611109017694	113.2280780405529	0	0	76.2276816070154	-17.0689476258495	2.559530377721615	31.57475211906646	105.2216548317015	0	0
20.61999999999965	-6.83903262638056	-4.243909195910149	29.959100757241	0	0.9399999999999999	0	37.49704374376746	-10.49178218083911	-9.822394739857128	50.45451962152215	0.8805974899076446	0	0	0	37.49704374376746	-10.49178218083911	-9.822394739857128	50.45451962152215	0.8805974899076446	0	0	0	-6.293429000154234	-1.109343728186694	9.043463460589857	59.89285304374793	-12.89030445624862	20.15487975601308	53.83978765234457	113.3805372379208	0	0	76.21928805863547	-17.67059747998264	3.289277835966159	30.17885812594079	105.8275581703062	0	0
20.63999999999965	-6.850547551601576	-4.270761689641122	29.97649319612072	0	0.9399999999999999	0	37.4998372985024	-10.49115114913618	-9.822541086329441	50.45565094596898	0.8806172352441504	0	0	0	37.4998372985024	-10.49115114913618	-9.822541086329441	50.45565094596898	0.8806172352441504	0	0	0	-6.32122275698659	-1.117939391982751	8.985260775898629	59.89904645540501	-12.83784638292479	20.16142645927382	53.88347079869145	113.3599776762707	0	0	76.18076206816815	-17.97803025518366	3.770650017172327	29.06195306740152	106.5331853611288	0	0
20.65999999999965	-6.876343882143668	-4.299128993194071	29.98289284253707	0	0.9399999999999999	0	37.50239795044983	-10.49057345475986	-9.822675139164925	50.45668850745103	0.880635344108204	0	0	0	37.50239795044983	-10.49057345475986	-9.822675139164925	50.45668850745103	0.880635344108204	0	0	0	-6.361406194821162	-1.122485368949852	8.940214238050089	59.94574071519794	-12.81320967715942	20.22391838887814	53.92212980419234	113.2821745088449	0	0	76.20021087073361	-18.23619786692396	4.273748907390226	28.09472330566588	106.9527876573142	0	0
20.67999999999965	-6.88511209352337	-4.29718430653687	29.97918670798636	0	0.9399999999999999	0	37.50531227282232	-10.48991610767089	-9.822827707015392	50.45786880933889	0.8806559442623145	0	0	0	37.50531227282232	-10.48991610767089	-9.822827707015392	50.45786880933889	0.8806559442623145	0	0	0	-6.368859923595696	-1.11526094433657	8.935375509719441	59.94487025760836	-12.82862323487236	20.26789631700135	53.95306351972275	113.2658992305775	0	0	76.18810819480505	-18.35383535847056	4.803264290231107	27.17076004943209	107.0836223178488	0	0
20.69999999999965	-6.884348853519278	-4.294790354485421	29.939950215394	0	0.9399999999999999	0	37.50862874028267	-10.48916734725512	-9.823001465693785	50.45920957367456	0.8806793450144652	0	0	0	37.50862874028267	-10.48916734725512	-9.823001465693785	50.45920957367456	0.8806793450144652	0	0	0	-6.366038246769327	-1.116173774097529	8.954618173763436	59.95478130850439	-12.82190404570599	20.27478296871981	54.00395020329866	113.3041221384278	0	0	76.16344500138456	-18.41838016270158	5.407211864797606	26.74336888112397	106.8263480012841	0	0
